<?xml version="1.0" standalone="no"?>
<!DOCTYPE svg PUBLIC "-//W3C//DTD SVG 20010904//EN"
 "http://www.w3.org/TR/2001/REC-SVG-20010904/DTD/svg10.dtd">
<svg version="1.0" xmlns="http://www.w3.org/2000/svg"
 width="200.000000pt" height="200.000000pt" viewBox="0 0 200.000000 200.000000"
 preserveAspectRatio="xMidYMid meet">
<metadata>
Created by potrace 1.11, written by Peter Selinger 2001-2013
</metadata>
<g transform="translate(0.000000,200.000000) scale(0.100000,-0.100000)"
fill="#000000" stroke="none">
<path d="M899 1996 c-2 -2 -26 -6 -54 -10 -100 -12 -243 -61 -335 -116 -245
-144 -414 -366 -482 -635 -25 -102 -32 -309 -12 -412 57 -301 243 -556 514
-705 149 -81 300 -117 485 -113 72 2 141 6 155 9 14 3 41 9 60 12 61 11 192
65 274 113 253 148 431 403 481 691 18 99 13 294 -10 390 -79 339 -326 614
-650 725 -27 9 -57 18 -65 20 -8 2 -37 9 -65 15 -48 12 -287 25 -296 16z"/>
</g>
</svg>
